<?xml version="1.0" standalone="no"?>
<!DOCTYPE svg PUBLIC "-//W3C//DTD SVG 20010904//EN"
 "http://www.w3.org/TR/2001/REC-SVG-20010904/DTD/svg10.dtd">
<svg version="1.0" xmlns="http://www.w3.org/2000/svg"
 width="128.000000pt" height="128.000000pt" viewBox="0 0 128.000000 128.000000"
 preserveAspectRatio="xMidYMid meet">
<metadata>
Created by potrace 1.14, written by Peter Selinger 2001-2017
</metadata>
<g transform="translate(0.000000,128.000000) scale(0.100000,-0.100000)"
fill="#000000" stroke="none">
<path d="M398 1155 c-53 -17 -104 -63 -124 -112 -20 -47 -17 -140 6 -191 29
-65 96 -146 209 -255 112 -107 137 -122 178 -106 15 6 87 70 158 142 164 165
200 226 193 335 -5 89 -37 141 -112 176 -67 32 -172 31 -227 -3 l-37 -22 -43
23 c-53 27 -138 33 -201 13z m135 -54 c4 0 7 -10 7 -21 0 -21 -27 -40 -57 -40
-30 0 -81 -52 -91 -90 -9 -38 -47 -55 -58 -26 -20 51 31 136 100 167 34 15 53
17 99 10z"/>
<path d="M16 875 c-13 -52 -17 -196 -6 -236 21 -77 100 -227 134 -252 17 -13
70 -47 117 -75 110 -66 121 -79 127 -147 l4 -55 104 0 c57 0 104 1 105 3 0 1
3 39 5 85 5 72 3 88 -19 136 -45 97 -125 160 -220 172 -67 8 -91 22 -141 80
-43 49 -108 94 -136 94 -28 0 -18 -34 26 -92 26 -35 52 -70 57 -78 18 -29 -58
58 -91 103 -32 46 -32 47 -14 65 14 14 18 29 15 53 -8 67 -11 94 -12 116 -1
21 -25 53 -41 53 -4 0 -11 -11 -14 -25z"/>
<path d="M1227 885 c-9 -8 -18 -44 -22 -82 -4 -38 -8 -77 -9 -88 -2 -11 5 -26
15 -33 22 -15 16 -34 -26 -87 -89 -110 -106 -116 -24 -8 27 35 49 68 49 73 0
5 -9 12 -20 15 -28 9 -75 -22 -142 -94 -34 -37 -66 -62 -84 -66 -151 -30 -186
-49 -248 -140 l-41 -60 0 -100 0 -100 108 -3 c59 -1 107 1 108 5 0 4 1 30 2
57 3 58 12 67 167 165 l105 67 42 85 c66 135 75 170 68 274 -9 135 -16 153
-48 120z"/>
</g>
</svg>
