<svg width="75" height="24" viewBox="0 0 75 24" fill="none" xmlns="http://www.w3.org/2000/svg">
<path d="M49.3908 1.19086H46.7675V22.4641H49.3908V1.19086Z" fill="#214E41"/>
<path d="M56.078 1.19086H53.4547V22.4641H56.078V1.19086Z" fill="#214E41"/>
<path d="M73.7314 8.11603L72.4197 10.9727C71.2156 8.91675 69.1084 7.74813 66.6356 7.74813C62.2061 7.74813 59.1958 11.1241 59.1958 15.2792C59.1958 19.4343 62.2061 22.8103 66.6356 22.8103C68.9794 22.8103 71.0006 21.7499 72.2262 19.8888V22.4641H75V8.11603H73.7314ZM67.0442 21.2738C63.9263 21.2738 62.2061 18.7202 62.2061 15.2792C62.2061 11.7517 63.9263 9.28465 67.0442 9.28465C69.904 9.28465 72.0327 11.795 72.0327 15.2792C72.0327 18.7635 69.904 21.2738 67.0442 21.2738Z" fill="#214E41"/>
<path d="M23.115 9.263C22.2764 10.0637 21.6313 11.0592 21.2658 12.1629L19.9111 8.09438H18.6425V22.4424H21.4163V16.9889C21.4163 15.0195 21.6313 13.3748 22.4269 12.2062C23.115 11.2107 24.2976 10.6048 25.7812 10.6048C26.2543 10.6048 26.7274 10.648 27.2004 10.7346V7.98618C26.9209 7.94289 26.6413 7.92125 26.3618 7.92125C25.1577 7.94289 23.9966 8.419 23.115 9.263Z" fill="#214E41"/>
<path d="M35.7368 7.74813C31.2858 7.74813 28.125 10.9943 28.125 15.2792C28.125 19.5642 31.2213 22.8103 35.7153 22.8103C37.3925 22.832 39.0482 22.3342 40.4458 21.382C41.6069 20.4947 42.4455 19.2396 42.8326 17.8112H39.9728C39.5427 19.6291 38.4246 21.2955 35.9088 21.2955C32.3609 21.2955 31.2213 18.5038 31.1568 15.5173V15.474H43.1551C43.1551 15.3225 43.1551 15.2143 43.1551 15.1277C43.1766 10.8428 40.1448 7.74813 35.7368 7.74813ZM35.7583 9.26301C38.8976 9.26301 39.8867 11.8383 39.9728 13.9158H31.2428C31.5009 11.3838 32.791 9.26301 35.7583 9.26301Z" fill="#214E41"/>
<path d="M9.46101 12.0114C12.2778 11.4271 14.4495 9.91223 14.4495 7.27202C14.4495 4.02585 12.0198 2.46769 8.27838 2.46769H0V22.4857H9.15998C12.5358 22.4857 15.2021 20.7544 15.2021 17.0971C15.2021 14.0673 12.6649 12.2278 9.46101 12.0114ZM7.33228 3.91764C10.0201 3.91764 11.4177 5.28103 11.4177 7.4235C11.4177 9.56598 9.89106 11.2323 7.09576 11.2323H3.09633V3.91764H7.33228ZM7.69782 20.9925H3.09633V12.8987H7.22477C10.1706 12.8987 11.9983 14.3487 11.9983 16.9672C11.9983 19.2612 10.4716 20.9925 7.69782 20.9925Z" fill="#214E41"/>
</svg>
